<svg xmlns="http://www.w3.org/2000/svg" width="25" height="24" viewBox="0 0 25 24">
  <path fill="#828282" fill-rule="evenodd" d="M5.1579524,0.0452568892 C5.54758057,0.0614121842 5.8875643,0.188321001 6.06320166,0.566534406 C6.37773589,1.24487729 6.68563893,1.92627173 6.98045877,2.61341027 C7.39374421,3.57698387 7.76258266,4.56102083 8.20723191,5.50933664 C8.51083362,6.15590745 8.37713417,6.71326512 7.99897619,7.23274761 C7.58264398,7.80374753 7.12114787,8.34207786 6.66449076,8.88292123 C6.31285761,9.29918933 6.26034562,9.6752487 6.54943037,10.1451883 C8.14844717,12.7413442 10.1752664,14.9057947 12.8856375,16.3612073 C13.5914129,16.7403182 14.3274768,17.0666551 15.0655121,17.3791703 C15.606045,17.6082165 15.9073168,17.5041046 16.2831449,17.0447557 C16.8950081,16.2967656 17.5029284,15.5459034 18.1092357,14.7934256 C18.5262848,14.2757382 18.8565906,14.1563685 19.4643317,14.4365731 C21.131632,15.2050267 22.7828023,16.0088423 24.4461597,16.7860915 C24.8658972,16.9821091 25.0526463,17.3032405 24.9872303,17.7347663 C24.8712738,18.4990913 24.7721642,19.2743659 24.553872,20.0117654 C24.3160447,20.8136065 23.6726385,21.3390126 23.0059334,21.7994385 C21.340963,22.9493365 19.5279554,23.4935905 17.5253311,22.9308477 C16.1915626,22.5564039 14.8801968,22.0957985 13.572953,21.634116 C10.5677621,20.5736107 8.09235075,18.7168288 5.90960858,16.4365986 C4.10502439,14.5510962 2.5282311,12.486988 1.25127585,10.209989 C0.202649166,8.34046233 -0.295049741,6.34061632 0.181680217,4.18998756 C0.518437957,2.67121033 1.33819842,1.43371474 2.52177911,0.449498269 C3.07718743,-0.0118251529 3.76916276,-0.055264946 4.45181855,0.0434618565 C4.69663552,0.0434618565 4.92783162,0.0357432155 5.1579524,0.0452568892 Z"/>
</svg>
