<?xml version="1.0" encoding="UTF-8"?>
<svg width="24px" height="24px" viewBox="0 0 24 24" version="1.1" xmlns="http://www.w3.org/2000/svg" xmlns:xlink="http://www.w3.org/1999/xlink">
    <!-- Generator: Sketch 44.1 (41455) - http://www.bohemiancoding.com/sketch -->
    <title>telephone-auricular-with-cable</title>
    <desc>Created with Sketch.</desc>
    <defs></defs>
    <g id="Page-1" stroke="none" stroke-width="1" fill="none" fill-rule="evenodd">
        <g id="HOMEPAGE" transform="translate(-877.000000, -54.000000)" fill-rule="nonzero" fill="#FFFFFF">
            <g id="Group-2" transform="translate(-37.000000, -115.000000)">
                <g id="telephone-auricular-with-cable" transform="translate(914.000000, 169.000000)">
                    <path d="M11.8785455,0 C5.32872727,0 0,5.32872727 0,11.8792727 C0,18.4290909 5.328,23.7578182 11.8785455,23.7578182 C12.2836364,23.7578182 12.6109091,23.4298182 12.6109091,23.0261818 C12.6109091,22.6218182 12.2836364,22.2938182 11.8785455,22.2938182 C6.136,22.2938182 1.46545455,17.6218182 1.46545455,11.88 C1.46545455,6.13745455 6.136,1.46545455 11.8785455,1.46545455 C17.6210909,1.46545455 22.2909091,6.13745455 22.2909091,11.88 C22.2909091,14.2792727 21.0138182,16.6589091 19.1861818,17.6654545 C18.5221818,18.0305455 17.8021818,18.2116364 17.0341818,18.2189091 C17.4952727,17.944 17.8945455,17.5738182 18.1912727,17.1054545 C18.2494545,17.0174545 18.3265455,16.9410909 18.3643636,16.8443636 C18.6029091,16.2705455 18.624,15.6196364 18.768,15.0145455 C18.9447273,14.2392727 15.3803636,12.7287273 15.0705455,13.6945455 C14.9585455,14.0530909 14.7869091,15.184 14.5621818,15.4821818 C14.3621818,15.7476364 13.8690909,15.6225455 13.5607273,15.36 C12.7483636,14.6676364 11.8414545,13.6494545 11.0458182,12.8458182 L11.0472727,12.8450909 C11.0269091,12.824 11.0021818,12.8 10.9803636,12.7789091 C10.9578182,12.7570909 10.9352727,12.7338182 10.9127273,12.712 L10.9127273,12.712 C10.1083636,11.9170909 9.09018182,11.0116364 8.39854545,10.1970909 C8.13672727,9.88872727 8.01018182,9.39709091 8.27636364,9.19636364 C8.57454545,8.97090909 9.70618182,8.80145455 10.064,8.68872727 C11.0283636,8.37963636 9.51854545,4.81309091 8.74327273,4.99127273 C8.13818182,5.13309091 7.48727273,5.15490909 6.91345455,5.39272727 C6.816,5.43345455 6.74036364,5.50909091 6.65236364,5.56727273 C4.61672727,6.85818182 4.35418182,9.99127273 6.34109091,12.3250909 C7.09818182,13.2181818 7.888,14.0821818 8.70109091,14.9258182 L8.69672727,14.9287273 C8.71927273,14.9512727 8.74254545,14.9723636 8.76581818,14.9941818 C8.78763636,15.0167273 8.80872727,15.0392727 8.82981818,15.0632727 L8.83418182,15.0589091 C9.67781818,15.872 10.6778182,17.0690909 12.3025455,18.1534545 C15.7229091,20.4378182 18.3476364,19.8 19.8938182,18.952 C22.5629091,17.4821818 23.7570909,14.3425455 23.7570909,11.8836364 C23.7578182,5.32872727 18.4283636,0 11.8785455,0 Z" id="Shape"></path>
                </g>
            </g>
        </g>
    </g>
</svg>