<?xml version="1.0" encoding="UTF-8"?>
<svg width="24px" height="24px" viewBox="0 0 24 24" version="1.1" xmlns="http://www.w3.org/2000/svg" xmlns:xlink="http://www.w3.org/1999/xlink">
    <!-- Generator: Sketch 44.1 (41455) - http://www.bohemiancoding.com/sketch -->
    <title>social-facebook-circular-button</title>
    <desc>Created with Sketch.</desc>
    <defs></defs>
    <g id="Page-1" stroke="none" stroke-width="1" fill="none" fill-rule="evenodd">
        <g id="HOMEPAGE" transform="translate(-1258.000000, -55.000000)" fill-rule="nonzero" fill="#FFFFFF">
            <g id="Group-2" transform="translate(-37.000000, -115.000000)">
                <g id="social-facebook-circular-button" transform="translate(1295.000000, 170.000000)">
                    <path d="M12,0 C5.37229687,0 0,5.37229687 0,12 C0,18.6277031 5.37229687,24 12,24 C18.6277031,24 24,18.6277031 24,12 C24,5.37229687 18.6277031,0 12,0 Z M12,22.125 C6.40795313,22.125 1.875,17.5920469 1.875,12 C1.875,6.40795313 6.40795313,1.875 12,1.875 C17.5920469,1.875 22.125,6.40795313 22.125,12 C22.125,17.5920469 17.5920469,22.125 12,22.125 Z" id="Shape"></path>
                    <path d="M14.8476563,10.1630625 L12.7602656,10.1630625 L12.7602656,8.639625 C12.7602656,8.17232813 13.2436406,8.06395313 13.46925,8.06395313 C13.6933594,8.06395313 14.8177031,8.06395313 14.8177031,8.06395313 L14.8177031,6.0080625 L13.2722344,6 C11.1636563,6 10.6823906,7.53295313 10.6823906,8.515875 L10.6823906,10.1631094 L9.15234375,10.1631094 L9.15234375,12.28125 L10.6823906,12.28125 C10.6823906,15.00075 10.6823906,18 10.6823906,18 L12.7602656,18 C12.7602656,18 12.7602656,14.9699531 12.7602656,12.28125 L14.5253906,12.28125 L14.8476563,10.1630625 Z" id="Shape"></path>
                </g>
            </g>
        </g>
    </g>
</svg>